<svg width="1024" height="1024" viewBox="0 0 1024 1024" fill="none" xmlns="http://www.w3.org/2000/svg">
<path d="M23 918V106H291.372C330.215 106 364.056 114.893 392.894 132.68C421.732 150.467 444.097 175.6 459.987 208.08C475.878 240.56 483.823 278.84 483.823 322.92V336.84C483.823 385.56 474.995 425 457.339 455.16C439.683 485.32 417.907 507.36 392.011 521.28V542.16C415.553 543.707 433.797 554.533 446.745 574.64C459.693 593.973 466.167 619.88 466.167 652.36V918H349.637V674.4C349.637 655.84 345.811 640.76 338.16 629.16C331.098 617.56 319.033 611.76 301.966 611.76H139.53V918H23ZM139.53 472.56H279.013C306.674 472.56 328.155 462.893 343.457 443.56C359.348 423.453 367.293 397.16 367.293 364.68V353.08C367.293 320.6 359.642 294.693 344.34 275.36C329.038 255.253 307.262 245.2 279.013 245.2H139.53V472.56Z" fill="black"/>
<path d="M492.506 918V783.44H573.724V240.56H492.506V106H810.315C847.981 106 880.645 114.507 908.306 131.52C936.555 147.76 958.331 171.347 973.633 202.28C989.524 232.44 997.469 268.787 997.469 311.32V322.92C997.469 360.04 992.172 390.587 981.578 414.56C970.985 437.76 958.331 455.933 943.618 469.08C929.493 481.453 915.957 490.347 903.009 495.76V516.64C915.957 521.28 930.082 530.173 945.384 543.32C960.685 555.693 973.633 573.867 984.227 597.84C995.409 621.813 1001 653.133 1001 691.8V703.4C1001 748.253 993.055 786.92 977.164 819.4C961.274 851.107 939.204 875.467 910.954 892.48C883.293 909.493 850.924 918 813.846 918H492.506ZM690.254 778.8H799.721C825.028 778.8 845.333 770.68 860.635 754.44C876.525 738.2 884.47 715 884.47 684.84V673.24C884.47 643.08 876.819 619.88 861.517 603.64C846.215 587.4 825.617 579.28 799.721 579.28H690.254V778.8ZM690.254 440.08H797.956C822.085 440.08 841.801 431.96 857.103 415.72C872.994 399.48 880.939 377.053 880.939 348.44V336.84C880.939 307.453 873.288 285.027 857.986 269.56C842.684 253.32 822.674 245.2 797.956 245.2H690.254V440.08Z" fill="black"/>
</svg>
